<svg width="33" height="23" viewBox="0 0 33 23" fill="none" xmlns="http://www.w3.org/2000/svg">
<path d="M27.72 9.99063C27.9314 9.44129 28.05 8.84062 28.05 8.21429C28.05 5.4933 25.8328 3.28571 23.1 3.28571C22.0842 3.28571 21.1355 3.59375 20.3517 4.11741C18.9234 1.65313 16.2577 0 13.2 0C8.64188 0 4.95 3.67589 4.95 8.21429C4.95 8.3529 4.95516 8.49152 4.96031 8.63013C2.07281 9.64152 0 12.383 0 15.6071C0 19.6886 3.32578 23 7.425 23H26.4C30.0455 23 33 20.0583 33 16.4286C33 13.2507 30.7313 10.5964 27.72 9.99063ZM21.8522 12.6911H18.48V18.4411C18.48 18.8929 18.1088 19.2625 17.655 19.2625H15.18C14.7263 19.2625 14.355 18.8929 14.355 18.4411V12.6911H10.9828C10.2455 12.6911 9.87938 11.808 10.4002 11.2895L15.8348 5.87835C16.1545 5.56004 16.6805 5.56004 17.0002 5.87835L22.4348 11.2895C22.9556 11.808 22.5844 12.6911 21.8522 12.6911Z" fill="#EDEFDE"/>
</svg>
