<svg width="23" height="20" viewBox="0 0 23 20" fill="none" xmlns="http://www.w3.org/2000/svg">
<path d="M16.076 3.24673L19.6778 6.77085C19.8295 6.91932 19.8295 7.16155 19.6778 7.31002L10.9569 15.8429L7.25139 16.2454C6.75625 16.3001 6.33698 15.8898 6.39288 15.4054L6.80417 11.7796L15.525 3.24673C15.6767 3.09826 15.9243 3.09826 16.076 3.24673ZM22.5448 2.35202L20.5962 0.4454C19.9892 -0.148466 19.003 -0.148466 18.392 0.4454L16.9785 1.82848C16.8267 1.97695 16.8267 2.21918 16.9785 2.36765L20.5802 5.89178C20.7319 6.04024 20.9795 6.04024 21.1313 5.89178L22.5448 4.50869C23.1517 3.91092 23.1517 2.94589 22.5448 2.35202ZM15.3333 13.5222V17.4995H2.55556V4.99707H11.7316C11.8594 4.99707 11.9792 4.94628 12.071 4.86032L13.6682 3.29752C13.9717 3.00059 13.7561 2.49658 13.3288 2.49658H1.91667C0.858507 2.49658 0 3.33659 0 4.37195V18.1246C0 19.16 0.858507 20 1.91667 20H15.9722C17.0304 20 17.8889 19.16 17.8889 18.1246V11.9594C17.8889 11.5413 17.3738 11.3342 17.0703 11.6273L15.4731 13.1901C15.3852 13.2799 15.3333 13.3971 15.3333 13.5222Z" fill="#EDEFDE"/>
</svg>
