<svg width="29" height="20" viewBox="0 0 29 20" fill="none" xmlns="http://www.w3.org/2000/svg">
<path d="M28.8248 9.23958C26.0945 3.72865 20.6892 0 14.5 0C8.3108 0 2.90401 3.73125 0.175181 9.2401C0.0600076 9.47579 0 9.73617 0 10.0003C0 10.2643 0.0600076 10.5247 0.175181 10.7604C2.90552 16.2714 8.3108 20 14.5 20C20.6892 20 26.096 16.2687 28.8248 10.7599C28.94 10.5242 29 10.2638 29 9.99974C29 9.73565 28.94 9.47526 28.8248 9.23958ZM14.5 17.5C13.0661 17.5 11.6644 17.0601 10.4721 16.236C9.27985 15.4119 8.3506 14.2406 7.80186 12.8701C7.25312 11.4997 7.10955 9.99168 7.38929 8.53682C7.66904 7.08197 8.35953 5.74559 9.37347 4.6967C10.3874 3.64781 11.6792 2.9335 13.0856 2.64411C14.492 2.35472 15.9497 2.50325 17.2745 3.0709C18.5992 3.63856 19.7315 4.59985 20.5282 5.83322C21.3248 7.06659 21.75 8.51664 21.75 10C21.7505 10.985 21.5633 11.9605 21.1991 12.8707C20.8349 13.7809 20.3009 14.6078 19.6276 15.3044C18.9542 16.0009 18.1548 16.5533 17.275 16.9301C16.3952 17.3068 15.4522 17.5005 14.5 17.5ZM14.5 5C14.0686 5.00624 13.64 5.07263 13.2257 5.1974C13.5672 5.67743 13.731 6.26817 13.6876 6.86247C13.6441 7.45677 13.3962 8.01528 12.9888 8.43672C12.5814 8.85815 12.0415 9.1146 11.467 9.15956C10.8926 9.20452 10.3215 9.03501 9.85747 8.68177C9.59323 9.68885 9.64093 10.7563 9.99386 11.7339C10.3468 12.7114 10.9872 13.5499 11.8249 14.1312C12.6625 14.7126 13.6554 15.0075 14.6636 14.9746C15.6718 14.9416 16.6447 14.5824 17.4453 13.9476C18.2458 13.3127 18.8338 12.4341 19.1263 11.4354C19.4189 10.4368 19.4014 9.36832 19.0762 8.38051C18.7511 7.39269 18.1346 6.53523 17.3137 5.92881C16.4928 5.32239 15.5087 4.99754 14.5 5Z" fill="white"/>
</svg>
