<svg width="14" height="20" viewBox="0 0 14 20" fill="none" xmlns="http://www.w3.org/2000/svg">
<path d="M8.16667 5.3125V1C8.16667 0.447715 7.71895 0 7.16667 0H0.875C0.390104 0 0 0.417969 0 0.9375V19.0625C0 19.582 0.390104 20 0.875 20H13.125C13.6099 20 14 19.582 14 19.0625V7.25C14 6.69772 13.5523 6.25 13 6.25H9.04167C8.56042 6.25 8.16667 5.82812 8.16667 5.3125ZM10.5 14.5312C10.5 14.7891 10.3031 15 10.0625 15H3.9375C3.69687 15 3.5 14.7891 3.5 14.5312V14.2188C3.5 13.9609 3.69687 13.75 3.9375 13.75H10.0625C10.3031 13.75 10.5 13.9609 10.5 14.2188V14.5312ZM10.5 12.0312C10.5 12.2891 10.3031 12.5 10.0625 12.5H3.9375C3.69687 12.5 3.5 12.2891 3.5 12.0312V11.7188C3.5 11.4609 3.69687 11.25 3.9375 11.25H10.0625C10.3031 11.25 10.5 11.4609 10.5 11.7188V12.0312ZM10.5 9.21875V9.53125C10.5 9.78906 10.3031 10 10.0625 10H3.9375C3.69687 10 3.5 9.78906 3.5 9.53125V9.21875C3.5 8.96094 3.69687 8.75 3.9375 8.75H10.0625C10.3031 8.75 10.5 8.96094 10.5 9.21875ZM14 4.76172V4.76172C14 4.89332 13.8933 5 13.7617 5H10.3333C9.78105 5 9.33333 4.55228 9.33333 4V0.222396C9.33333 0.09957 9.4329 0 9.55573 0V0C9.78906 0 10.0115 0.0976562 10.1755 0.273438L13.7448 4.10156C13.9089 4.27734 14 4.51563 14 4.76172Z" fill="white"/>
</svg>
