<svg width="20" height="20" viewBox="0 0 20 20" fill="none" xmlns="http://www.w3.org/2000/svg">
<path d="M10.65 4.34906C11.0406 3.95854 11.6737 3.95855 12.0643 4.34908L15.6507 7.93573C16.0413 8.32625 16.0413 8.95939 15.6507 9.34991L5.74743 19.2536C5.5867 19.4144 5.37599 19.5156 5.15004 19.5405L1.04063 19.9942C0.443772 20.0602 -0.0605117 19.5555 0.00589283 18.9586L0.463215 14.8454C0.488305 14.6198 0.589442 14.4094 0.749994 14.2488L10.65 4.34906ZM19.4507 2.89741L17.1027 0.549325C16.3703 -0.183108 15.1825 -0.183108 14.45 0.549325L12.9482 2.05126C12.5577 2.44178 12.5577 3.07492 12.9482 3.46544L16.5347 7.05206C16.9252 7.4426 17.5584 7.4426 17.9489 7.05206L19.4507 5.55019C20.1831 4.81736 20.1831 3.62984 19.4507 2.89741Z" fill="white"/>
</svg>
