<svg width="20" height="20" viewBox="0 0 20 20" fill="none" xmlns="http://www.w3.org/2000/svg">
<path d="M0.853553 19.1464C0.53857 19.4614 0 19.2383 0 18.7929V2C0 1.45 0.195833 0.979167 0.5875 0.5875C0.979167 0.195833 1.45 0 2 0H18C18.55 0 19.0208 0.195833 19.4125 0.5875C19.8042 0.979167 20 1.45 20 2V14C20 14.55 19.8042 15.0208 19.4125 15.4125C19.0208 15.8042 18.55 16 18 16H4.20711C4.0745 16 3.94732 16.0527 3.85355 16.1464L0.853553 19.1464ZM4 11.5C4 11.7761 4.22386 12 4.5 12H11.5C11.7761 12 12 11.7761 12 11.5V10.5C12 10.2239 11.7761 10 11.5 10H4.5C4.22386 10 4 10.2239 4 10.5V11.5ZM4 8.5C4 8.77614 4.22386 9 4.5 9H15.5C15.7761 9 16 8.77614 16 8.5V7.5C16 7.22386 15.7761 7 15.5 7H4.5C4.22386 7 4 7.22386 4 7.5V8.5ZM4 5.5C4 5.77614 4.22386 6 4.5 6H15.5C15.7761 6 16 5.77614 16 5.5V4.5C16 4.22386 15.7761 4 15.5 4H4.5C4.22386 4 4 4.22386 4 4.5V5.5Z" fill="#EDEFDE"/>
</svg>
