<svg width="25" height="20" viewBox="0 0 25 20" fill="none" xmlns="http://www.w3.org/2000/svg">
<path d="M12.4999 15.6251C9.68897 15.6251 7.38607 13.5609 6.9688 10.8676C6.92545 10.5877 6.78999 10.3266 6.56594 10.1535L3.59968 7.86108C3.16732 7.52694 2.54277 7.59907 2.22855 8.04611C1.91919 8.48622 1.63409 8.94534 1.38585 9.43018C1.29649 9.60694 1.24994 9.80223 1.24994 10.0003C1.24994 10.1984 1.29649 10.3937 1.38585 10.5704C3.50421 14.7036 7.69796 17.5001 12.4999 17.5001C12.8492 17.5001 13.1945 17.4828 13.5356 17.4505C14.3634 17.3722 14.586 16.3514 13.9284 15.8426L13.8732 15.7999C13.6458 15.624 13.3543 15.5593 13.0686 15.591C12.8798 15.6119 12.69 15.6233 12.4999 15.6251ZM24.7585 17.8946L21.4204 15.3147C20.9162 14.925 20.902 14.1701 21.3478 13.7147C22.2552 12.7879 23.0197 11.7282 23.614 10.57C23.7033 10.3933 23.7499 10.198 23.7499 9.99991C23.7499 9.80184 23.7033 9.60655 23.614 9.42979C21.4956 5.29659 17.3019 2.5001 12.4999 2.5001C10.707 2.50228 8.94007 2.90489 7.32714 3.67519C6.9688 3.84632 6.54226 3.81588 6.22806 3.57304L1.7757 0.131743C1.71089 0.0813164 1.63679 0.0441535 1.55762 0.022378C1.47844 0.000602454 1.39576 -0.0053588 1.31428 0.00483486C1.2328 0.0150285 1.15413 0.0411773 1.08277 0.0817869C1.0114 0.122396 0.948736 0.176671 0.898353 0.241509L0.131556 1.22862C0.0298368 1.35947 -0.015743 1.52537 0.00484145 1.68982C0.0254259 1.85428 0.110489 2.00383 0.241322 2.10557L23.2241 19.8685C23.2889 19.9189 23.363 19.9561 23.4422 19.9778C23.5214 19.9996 23.6041 20.0056 23.6856 19.9954C23.767 19.9852 23.8457 19.959 23.9171 19.9184C23.9884 19.8778 24.0511 19.8235 24.1015 19.7587L24.8687 18.7716C24.9703 18.6407 25.0159 18.4748 24.9952 18.3103C24.9745 18.1458 24.8894 17.9963 24.7585 17.8946ZM17.5819 12.3478C17.5819 12.3478 17.5819 12.3478 17.5819 12.3477L16.6151 11.6004C16.2755 11.3378 16.155 10.8888 16.2145 10.4637C16.236 10.3103 16.2478 10.1555 16.2499 10.0001C16.2575 9.4213 16.1293 8.84877 15.8755 8.32852C15.6217 7.80826 15.2495 7.35477 14.7886 7.00448C14.3278 6.65419 13.7912 6.41687 13.2221 6.31156C13.0416 6.27818 12.8595 6.25836 12.6772 6.25203C12.1047 6.23214 11.8739 6.92727 11.8749 7.5001V7.5001V7.5001C11.8666 7.68815 11.6504 7.76367 11.5014 7.64856L9.92376 6.42926C9.4182 6.03853 9.40601 5.27436 9.975 4.98369C10.7516 4.58694 11.6162 4.37576 12.4999 4.3751C13.2387 4.37469 13.9704 4.51991 14.653 4.80244C15.3356 5.08498 15.9559 5.4993 16.4783 6.02171C17.0007 6.54412 17.415 7.16438 17.6976 7.84702C17.9801 8.52966 18.1253 9.2613 18.1249 10.0001C18.1249 10.8449 17.9183 11.6323 17.5821 12.3478C17.5821 12.3479 17.5819 12.3479 17.5819 12.3478V12.3478Z" fill="#EDEFDE"/>
</svg>
