<svg width="51" height="45" viewBox="0 0 51 45" fill="none" xmlns="http://www.w3.org/2000/svg">
<path d="M26.2969 6.19594C26.5922 6.96526 27.639 7.06725 28.0773 6.3694L28.3877 5.87518C28.5027 5.69195 28.6741 5.55098 28.8761 5.47344L29.421 5.26427C30.1903 4.96895 30.2923 3.92212 29.5945 3.48386L29.1002 3.17345C28.917 3.05838 28.776 2.88698 28.6985 2.68498L28.4893 2.14015C28.194 1.37083 27.1472 1.26884 26.7089 1.96669L26.3985 2.4609C26.2835 2.64414 26.1121 2.78511 25.9101 2.86265L25.3652 3.07181C24.5959 3.36714 24.4939 4.41397 25.1917 4.85223L25.686 5.16263C25.8692 5.27771 26.0102 5.44911 26.0877 5.65111L26.2969 6.19594ZM14.1058 10.2506C14.4011 11.02 15.4481 11.122 15.8863 10.424L17.2303 8.28365C17.3454 8.10039 17.5168 7.95939 17.7188 7.88184L20.0796 6.97555C20.8489 6.68023 20.9509 5.6334 20.2531 5.19514L18.1116 3.8502C17.9283 3.73511 17.7874 3.56368 17.7098 3.36166L16.8043 1.00212C16.509 0.232713 15.462 0.130712 15.0238 0.828653L13.6798 2.96903C13.5648 3.15229 13.3933 3.29328 13.1913 3.37084L10.8305 4.27712C10.0612 4.57245 9.95919 5.61928 10.657 6.05754L12.7985 7.40248C12.9818 7.51757 13.1228 7.68899 13.2003 7.89102L14.1058 10.2506ZM43.0908 27.1555C42.7955 26.3861 41.7486 26.2841 41.3103 26.982L39.9664 29.1224C39.8513 29.3057 39.6799 29.4467 39.4779 29.5242L37.117 30.4305C36.3477 30.7258 36.2457 31.7727 36.9436 32.2109L39.0851 33.5559C39.2683 33.671 39.4093 33.8424 39.4868 34.0444L40.3924 36.4039C40.6877 37.1734 41.7346 37.2754 42.1729 36.5774L43.5168 34.437C43.6319 34.2538 43.8033 34.1128 44.0053 34.0352L46.3662 33.1289C47.1355 32.8336 47.2375 31.7868 46.5396 31.3485L44.3981 30.0036C44.2149 29.8885 44.0739 29.7171 43.9964 29.515L43.0908 27.1555ZM49.6366 10.1222L43.4221 2.56602C42.9653 2.0087 42.3253 1.69077 41.6608 1.62603C40.9962 1.56128 40.3069 1.74971 39.7503 2.20828L1.86335 32.3566C0.750201 33.2721 0.590026 34.9162 1.50561 36.0286L7.72004 43.5847C8.17779 44.1413 8.81771 44.4593 9.48149 44.5239C10.1461 44.5887 10.8353 44.4002 11.3919 43.9425L49.2789 13.7933C50.3919 12.8794 50.5521 11.2346 49.6366 10.1222ZM37.9276 17.2189C37.5011 17.5697 36.8709 17.5083 36.5201 17.0817L34.0618 14.0927C33.711 13.6662 33.7724 13.036 34.199 12.6852L40.3662 7.61287C40.7927 7.26204 41.4229 7.32344 41.7738 7.75L44.232 10.739C44.5828 11.1656 44.5214 11.7957 44.0949 12.1466L37.9276 17.2189Z" fill="#D2D7AC"/>
</svg>
