<svg width="30" height="20" viewBox="0 0 30 20" fill="none" xmlns="http://www.w3.org/2000/svg">
<path fill-rule="evenodd" clip-rule="evenodd" d="M1.6972 7.39191C1.69132 7.46209 1.68595 7.54085 1.68126 7.62822C1.66169 7.99229 1.65562 8.46905 1.66365 9.02561C1.67967 10.1369 1.75129 11.5288 1.87195 12.8999C1.99297 14.2752 2.16125 15.6053 2.36604 16.6012C2.46935 17.1035 2.57538 17.4877 2.6762 17.7412C2.69796 17.7959 2.71721 17.8387 2.73323 17.8712C5.57022 18.6762 9.24598 18.3542 13.0014 17.5342C16.81 16.7026 20.571 15.3899 23.4045 14.3825C23.9434 14.191 24.5312 14.0153 25.1019 13.8447C25.3429 13.7727 25.5808 13.7016 25.8107 13.6306C26.4962 13.4188 27.1387 13.2003 27.7095 12.9377C27.7135 12.902 27.7174 12.8611 27.7209 12.8148C27.7464 12.4853 27.7473 12.0041 27.7216 11.4051C27.6705 10.2145 27.5184 8.64825 27.2957 7.09253C27.0724 5.53252 26.783 4.01677 26.4647 2.91711C26.3033 2.35981 26.1478 1.95657 26.0124 1.71447C26.008 1.70659 26.0038 1.69907 25.9996 1.69192C22.1704 2.18878 17.9327 3.21609 13.7019 4.32701C12.6685 4.59837 11.6345 4.875 10.6076 5.14974C7.50282 5.98038 4.46273 6.79372 1.6972 7.39191ZM2.77865 17.9519C2.77868 17.9519 2.77862 17.9519 2.77865 17.9519ZM13.2803 2.72124C17.6184 1.58213 22.0548 0.505493 26.0779 0.00853861C26.4871 -0.0420116 26.8084 0.141064 27.0079 0.315876C27.2021 0.486048 27.349 0.702943 27.4616 0.904438C27.6898 1.31266 27.8869 1.85965 28.0594 2.45549C28.4087 3.6621 28.7112 5.26418 28.9392 6.85731C29.1678 8.45473 29.3264 10.0769 29.3803 11.3339C29.4071 11.9586 29.4092 12.5159 29.3762 12.9427C29.36 13.1519 29.3331 13.3638 29.284 13.548C29.2596 13.6394 29.2218 13.7547 29.1591 13.8694C29.1021 13.9736 28.9791 14.1611 28.7448 14.2806C27.9736 14.674 27.118 14.9644 26.3007 15.2168C26.0369 15.2983 25.7799 15.3751 25.5292 15.45C24.9787 15.6145 24.4581 15.77 23.9607 15.9468C21.1296 16.9533 17.2787 18.2995 13.3556 19.1561C9.45778 20.0072 5.35707 20.4066 2.0734 19.4077C1.7446 19.3076 1.5395 19.0735 1.4273 18.9163C1.30486 18.7448 1.20984 18.5466 1.13351 18.3547C0.979722 17.968 0.850566 17.4739 0.739861 16.9356C0.516626 15.85 0.341595 14.4484 0.218136 13.0455C0.0943171 11.6384 0.020287 10.2057 0.00361523 9.04955C-0.00470736 8.47238 0.00111172 7.95472 0.0234421 7.53914C0.0345847 7.33177 0.0503098 7.14054 0.0722173 6.97517C0.0922341 6.82407 0.123732 6.64182 0.184442 6.48096C0.370911 5.98688 0.832128 5.87863 0.947782 5.85428C3.77279 5.25947 6.89746 4.42356 10.1445 3.55492C11.1792 3.2781 12.2264 2.99796 13.2803 2.72124Z" fill="#EDEFDE"/>
<path fill-rule="evenodd" clip-rule="evenodd" d="M26.5597 0.292207C26.9849 0.46375 27.1905 0.947465 27.0189 1.37261C26.1257 3.58627 24.3351 6.03514 22.4114 8.00812C21.4442 9.00015 20.4253 9.89053 19.4427 10.5832C18.4727 11.2671 17.4851 11.7961 16.5852 12.0045C16.4983 12.0246 16.4116 12.0359 16.3185 12.0377C15.4221 12.055 14.1218 11.8153 12.7137 11.4705C11.2805 11.1194 9.65278 10.6378 8.06361 10.1268C4.89285 9.10733 1.81729 7.95213 0.678745 7.44708C0.259673 7.26118 0.0706492 6.77075 0.256548 6.35168C0.442446 5.93261 0.932871 5.74359 1.35194 5.92948C2.41365 6.40046 5.42658 7.53503 8.57179 8.54629C10.1406 9.05071 11.7277 9.51967 13.1087 9.85791C14.4873 10.1956 15.5843 10.3831 16.2474 10.3783C16.8399 10.2327 17.6088 9.84474 18.4861 9.22629C19.3692 8.60376 20.3113 7.78393 21.2227 6.84911C23.0565 4.9684 24.6942 2.69713 25.4793 0.751403C25.6509 0.326253 26.1346 0.120664 26.5597 0.292207Z" fill="#EDEFDE"/>
</svg>
