<svg width="53" height="19" viewBox="0 0 53 19" fill="none" xmlns="http://www.w3.org/2000/svg">
<path d="M38.2649 1.63761L38.409 2.87183C38.4682 3.40293 38.9564 3.80257 39.4884 3.75745L46.0439 3.21436C43.7877 7.52628 43.7877 7.52628 41.312 9.64996C37.9497 12.5342 34.399 15.0263 29.2877 15.0263C25.4363 15.0262 23.4585 12.3937 21.3667 9.09751C21.2562 8.9234 21.1446 8.74627 21.0319 8.5672C20.1436 7.15632 19.1792 5.6246 18.04 4.49318C16.6708 3.13342 14.9119 2.20756 12.5755 2.54133C9.29615 3.00982 6.42536 5.11569 4.24263 7.33756C2.54679 9.0638 1.16049 10.9679 0.204501 12.5263C-0.228673 13.2324 0.0545781 14.1404 0.787668 14.5263C1.52076 14.9121 2.42666 14.6297 2.86556 13.9271C3.71022 12.575 4.92088 10.928 6.38271 9.43995C8.3833 7.40349 10.6792 5.8427 12.9998 5.51118C14.1634 5.34495 15.0296 5.73159 15.926 6.62183C16.8055 7.49531 17.575 8.71338 18.5033 10.1829C18.6111 10.3535 18.7212 10.5278 18.8337 10.705C20.8669 13.9088 23.639 18.0262 29.2877 18.0263C38.839 18.0263 44.2422 10.9754 47.7877 6.02628C48.2906 5.0493 47.7877 6.02628 48.2877 5.02628L49.143 11.8575C49.1934 12.3863 49.6718 12.7977 50.2027 12.7667L51.4432 12.6941C51.9659 12.6663 52.3413 12.2189 52.2803 11.6963L51.0186 0.888594C50.9607 0.368613 50.4867 -0.0290643 49.9614 0.00166784L39.102 0.639855C38.5792 0.667644 38.2039 1.11502 38.2649 1.63761Z" fill="#EDEFDE"/>
</svg>
