<svg width="116" height="13" viewBox="0 0 116 13" fill="none" xmlns="http://www.w3.org/2000/svg">
<path fill-rule="evenodd" clip-rule="evenodd" d="M99.671 5.70885C96.8079 4.53268 94.2048 3.50373 91.3386 3.52121C87.963 3.54179 85.4951 4.57683 83.0302 6.03079C82.1676 6.5396 81.3373 7.07952 80.4575 7.65155C80.0408 7.92247 79.6131 8.20059 79.1656 8.48601C77.8015 9.35611 76.3209 10.2487 74.6328 11.0431C73.366 11.6392 71.8882 11.6186 70.6842 11.4772C69.5988 11.3498 68.5165 11.0922 67.7037 10.8988C67.5915 10.8721 67.4844 10.8466 67.3832 10.8229C65.0429 10.2739 62.9779 9.11705 61.1256 8.07936C61.0763 8.05176 61.0272 8.02424 60.9782 7.99682C59.0219 6.90143 57.2852 5.95062 55.3785 5.53749C51.4939 4.69584 48.8077 6.05694 46.0815 7.866C45.7206 8.10547 45.3484 8.36078 44.9677 8.62186C43.954 9.31706 42.8808 10.0531 41.8044 10.6397C40.2701 11.4758 38.5522 12.1191 36.553 12.1191C33.2115 12.1191 30.2515 11.3947 27.4403 10.4704C26.1945 10.0609 24.9607 9.60592 23.7428 9.15685C23.593 9.10162 23.4434 9.04649 23.2941 8.99153C21.9206 8.48592 20.5573 7.99179 19.1478 7.55436C16.4578 6.71953 13.8243 6.24482 11.1417 6.45605C9.9706 6.54826 7.87401 7.11293 6.04253 8.07696C5.13639 8.55391 4.3664 9.09207 3.8224 9.65582C3.27774 10.2203 3.03646 10.7273 2.99267 11.1652C2.91024 11.9895 2.17517 12.5909 1.35086 12.5085C0.526541 12.4261 -0.0748753 11.691 0.00755642 10.8667C0.139953 9.54272 0.827143 8.43947 1.66361 7.57265C2.50073 6.70514 3.56452 5.99108 4.64519 5.42225C6.78732 4.29472 9.27644 3.59363 10.9062 3.46531C14.0994 3.21388 17.1347 3.78847 20.037 4.68917C21.5275 5.15175 22.9547 5.66981 24.3305 6.17621C24.4808 6.23156 24.6305 6.28674 24.7795 6.34167C26.004 6.7931 27.1857 7.22875 28.3772 7.62049C31.0369 8.4949 33.6571 9.11911 36.553 9.11911C37.8776 9.11911 39.0927 8.7009 40.3688 8.00549C41.302 7.49696 42.1777 6.89623 43.1394 6.23653C43.548 5.95625 43.9721 5.66532 44.4227 5.3663C47.3626 3.41545 50.924 1.50274 56.0137 2.60552C58.4221 3.12733 60.5348 4.31029 62.4287 5.37075L62.4439 5.37921C64.408 6.47895 66.1496 7.45207 68.0683 7.90214C68.1803 7.92839 68.2939 7.95534 68.4089 7.98262C69.2353 8.17861 70.1361 8.39224 71.0341 8.4977C72.0886 8.62152 72.8696 8.55723 73.3554 8.32861C74.8741 7.61393 76.2309 6.79959 77.5523 5.95673C77.95 5.70306 78.3514 5.44212 78.7553 5.17959C79.6646 4.58848 80.5864 3.9893 81.5061 3.44683C84.2396 1.83439 87.2327 0.546191 91.3203 0.521267C94.8759 0.499587 98.0154 1.78546 100.811 2.93388L100.814 2.93532C103.702 4.12151 106.208 5.15086 108.9 5.15086C109.658 5.15086 110.234 4.9813 111.131 4.62485C111.358 4.53491 111.577 4.39866 111.919 4.17089C111.942 4.15588 111.965 4.14032 111.989 4.12429C112.293 3.92165 112.71 3.64245 113.192 3.42829C113.949 3.09184 114.836 3.43278 115.172 4.1898C115.509 4.94683 115.168 5.83327 114.411 6.16973C114.17 6.27694 113.947 6.42482 113.583 6.66771C113.252 6.88772 112.793 7.19265 112.239 7.41291C111.22 7.81784 110.225 8.15086 108.9 8.15086C105.609 8.15086 102.622 6.92261 99.9174 5.81013C99.835 5.77625 99.7528 5.74248 99.671 5.70885Z" fill="#EDEFDE"/>
</svg>
